<svg width="30" height="157" viewBox="0 0 30 157"
  xmlns="http://www.w3.org/2000/svg">
  <g fill="#6874E2" fill-rule="evenodd">
    <path d="M.5 156.5V.5H5C18.531.5 29.5 11.469 29.5 25v107c0 13.531-10.969 24.5-24.5 24.5H.5z" stroke="#6874E2" fill-opacity=".199"/>
    <text font-family="PingFangSC-Regular, PingFang SC" font-size="14">
      <tspan x="6" y="26">收</tspan>
      <tspan x="6" y="46">起</tspan>
      <tspan x="6" y="66">设</tspan>
      <tspan x="6" y="86">备</tspan>
      <tspan x="6" y="106">状</tspan>
      <tspan x="6" y="126">态</tspan>
    </text>
    <g fill-rule="nonzero">
      <path d="M16.325 140.34l-.028.027-.34.34-2.746 2.746a.5.5 0 01-.706.002.504.504 0 010-.708L15.25 140l-2.747-2.745a.504.504 0 010-.708.504.504 0 01.708 0l2.745 2.745.336.336.035.035a.5.5 0 01.13.335.49.49 0 01-.132.341z"/>
      <path d="M13.51 140.34l-.027.027-.34.34-2.746 2.746a.5.5 0 01-.706.002.504.504 0 010-.708L12.436 140l-2.747-2.745a.504.504 0 010-.708.504.504 0 01.708 0l2.745 2.745.336.336.034.035a.49.49 0 01.13.335.49.49 0 01-.131.341z"/>
    </g>
  </g>
</svg>
